nColumns=19
nRows=116
DataType=double
version=3
OpenSimVersion=4.1
endheader
time	ground_force_1_vx	ground_force_1_vy	ground_force_1_vz	ground_force_1_px	ground_force_1_py	ground_force_1_pz	ground_force_1_mx	ground_force_1_my	ground_force_1_mz	ground_force_2_vx	ground_force_2_vy	ground_force_2_vz	ground_force_2_px	ground_force_2_py	ground_force_2_pz	ground_force_2_mx	ground_force_2_my	ground_force_2_mz
2.715	0	0	0	0.13942	0	-0.239888	0	0	0	-56.2973	125.172	-17.5808	1.17054	-0	-0.404495	0	-4.80525	0
2.72	0	0	0	0.155439	0	-0.239187	0	0	0	-110.992	321.477	5.04688	1.05133	0	-0.442486	0	-3.46343	0
2.725	0	0	0	0.172607	0	-0.237856	0	0	0	-171.2	600.897	57.4241	1.04336	0	-0.421157	0	1.20062	0
2.73	0	0	0	0.190521	0	-0.236516	0	0	0	-218.05	925.274	142.884	1.0393	0	-0.40397	0	8.38287	0
2.735	0	0	0	0.211339	0	-0.233476	0	0	0	-243.425	1252.04	238.293	1.03527	0	-0.389434	0	9.2752	0
2.74	0	0	0	0.228743	0	-0.232501	0	0	0	-270.189	1561.36	302.202	1.02436	0	-0.377666	0	-6.7569	0
2.745	0	0	0	0.248347	0	-0.231027	0	0	0	-320.338	1834.95	297.859	1.00748	0	-0.369078	0	-32.4823	0
2.75	0	0	0	0.268847	0	-0.229313	0	0	0	-378.163	2050.63	211.319	0.994001	0	-0.364204	0	-46.2674	0
2.755	0	0	0	0.289183	0	-0.228958	0	0	0	-427.204	2211.01	66.5835	0.985377	0	-0.362618	0	-38.5454	0
2.76	0	0	0	0.309951	0	-0.227619	0	0	0	-465.973	2339.41	-81.7498	0.976678	0	-0.362786	0	-14.7924	0
2.765	0	0	0	0.330738	0	-0.226609	0	0	0	-484.7	2451.45	-177.722	0.966487	0	-0.363283	0	10.7921	0
2.77	0	0	0	0.351662	0	-0.225907	0	0	0	-477.464	2553.56	-187.767	0.952418	0	-0.363145	0	24.0604	0
2.775	0	0	0	0.373114	0	-0.225259	0	0	0	-445.842	2643.09	-115.82	0.931512	0	-0.362219	0	21.2023	0
2.78	0	0	0	0.394534	0	-0.224888	0	0	0	-389.968	2709.43	-3.39046	0.90528	0	-0.361345	0	6.89478	0
2.785	0	0	0	0.416416	0	-0.224832	0	0	0	-317.373	2746.7	96.1055	0.876728	0	-0.361162	0	-8.57582	0
2.79	0	0	0	0.43921	0	-0.22635	0	0	0	-241.143	2756.82	145.941	0.847515	0	-0.361925	0	-14.5325	0
2.795	0	0	0	0.462146	0	-0.225199	0	0	0	-165.982	2744.4	147.545	0.819374	0	-0.363072	0	-9.92555	0
2.8	0	0	0	0.486292	0	-0.225194	0	0	0	-91.228	2716.91	128.534	0.793916	0	-0.363674	0	-2.98032	0
2.805	0	0	0	0.511156	0	-0.225303	0	0	0	-20.5707	2675.37	115.67	0.770348	0	-0.363116	0	-3.17958	0
2.81	0	0	0	0.537446	0	-0.224214	0	0	0	45.6646	2616.3	113.927	0.747567	0	-0.361673	0	-13.7202	0
2.815	0	0	0	0.564358	0	-0.2256	0	0	0	110.849	2541.15	110.09	0.725001	0	-0.359809	0	-28.8455	0
2.82	0	0	0	0.592432	0	-0.226128	0	0	0	176.803	2454.5	84.2923	0.702976	0	-0.358002	0	-35.7663	0
2.825	0	0	0	0.621687	0	-0.226399	0	0	0	243.274	2354.37	25.4764	0.682638	0	-0.356768	0	-23.7417	0
2.83	0	0	0	0.651699	0	-0.226969	0	0	0	305.086	2230.38	-58.9029	0.663381	0	-0.356565	0	9.14755	0
2.835	0	0	0	0.682628	0	-0.227837	0	0	0	357.915	2067.8	-143.853	0.642327	0	-0.357604	0	54.449	0
2.84	0	0	0	0.714379	0	-0.228139	0	0	0	401.13	1860.67	-196.686	0.616856	0	-0.359667	0	92.574	0
2.845	0	0	0	0.746698	0	-0.228397	0	0	0	431.208	1613.86	-190.027	0.582863	0	-0.362045	0	100.211	0
2.85	0	0	0	0.779398	0	-0.228458	0	0	0	441.547	1339.58	-118.459	0.535369	0	-0.363861	0	64.7097	0
2.855	0	0	0	0.812666	0	-0.227905	0	0	0	428.678	1056.59	-5.70251	0.472197	0	-0.364396	0	-10.1247	0
2.86	0	0	0	0.845494	0	-0.227958	0	0	0	389.419	787.066	99.6917	0.39383	0	-0.363847	0	-96.1079	0
2.865	0	0	0	0.878265	0	-0.227844	0	0	0	323.57	551.652	147.109	0.311785	0	-0.364082	0	-145.403	0
2.87	0	0	0	0.910591	0	-0.228271	0	0	0	239.799	361.553	113.768	0.257042	0	-0.369202	0	-118.429	0
2.875	0	0	0	0.943487	0	-0.227407	0	0	0	152.229	213.281	24.0877	0.243471	0	-0.385034	0	-31.062	0
2.88	0	0	0	0.975634	0	-0.22819	0	0	0	81.9054	101.438	-65.0611	0.362385	0	-0.364354	0	54.8568	0
2.885	0	0	0	1.00779	0	-0.229295	0	0	0	40.2415	29.6685	-104.847	0.357735	0	-0.364102	0	91.5132	0
2.89	0	0	0	1.03927	0	-0.230155	0	0	0	0	0	0	0.340049	0	-0.366675	0	0	0
2.895	0	0	0	1.07081	0	-0.231767	0	0	0	0	0	0	0.323438	0	-0.369062	0	0	0
2.9	0	0	0	1.10168	0	-0.233055	0	0	0	0	0	0	0.307576	0	-0.370993	0	0	0
2.905	0	0	0	1.1326	0	-0.234923	0	0	0	0	0	0	0.290676	0	-0.371606	0	0	0
2.91	0	0	0	1.1619	0	-0.235498	0	0	0	0	0	0	0.271901	0	-0.37316	0	0	0
2.915	0	0	0	1.19022	0	-0.236133	0	0	0	0	0	0	0.255014	0	-0.373885	0	0	0
2.92	0	0	0	1.21728	0	-0.236358	0	0	0	0	0	0	0.239646	0	-0.373086	0	0	0
2.925	0	0	0	1.24295	0	-0.236168	0	0	0	0	0	0	0.224717	0	-0.372108	0	0	0
2.93	0	0	0	1.26654	0	-0.235702	0	0	0	0	0	0	0.209023	0	-0.370851	0	0	0
2.935	0	0	0	1.28848	0	-0.235056	0	0	0	0	0	0	0.194924	0	-0.369591	0	0	0
2.94	0	0	0	1.30808	0	-0.234168	0	0	0	0	0	0	0.182897	0	-0.368363	0	0	0
2.945	0	0	0	1.32503	0	-0.2335	0	0	0	0	0	0	0.170965	0	-0.366877	0	0	0
2.95	0	0	0	1.33943	0	-0.23285	0	0	0	0	0	0	0.162295	0	-0.367341	0	0	0
2.955	0	0	0	1.35106	0	-0.23243	0	0	0	0	0	0	0.154196	0	-0.3668	0	0	0
2.96	0	0	0	1.35973	0	-0.232167	0	0	0	0	0	0	0.148065	0	-0.366496	0	0	0
2.965	0	0	0	1.36576	0	-0.232138	0	0	0	0	0	0	0.14347	0	-0.366879	0	0	0
2.97	0	0	0	1.36959	0	-0.232347	0	0	0	0	0	0	0.140101	0	-0.366214	0	0	0
2.975	0	0	0	1.37075	0	-0.232392	0	0	0	0	0	0	0.138779	0	-0.366383	0	0	0
2.98	0	0	0	1.37	0	-0.232162	0	0	0	0	0	0	0.13898	0	-0.366717	0	0	0
2.985	0	0	0	1.36699	0	-0.231477	0	0	0	0	0	0	0.140831	0	-0.367179	0	0	0
2.99	0	0	0	1.36215	0	-0.230418	0	0	0	0	0	0	0.143905	0	-0.368122	0	0	0
2.995	0	0	0	1.35504	0	-0.22892	0	0	0	0	0	0	0.148712	0	-0.368491	0	0	0
3	0	0	0	1.34581	0	-0.227529	0	0	0	0	0	0	0.154822	0	-0.368917	0	0	0
3.005	0	0	0	1.33457	0	-0.226587	0	0	0	0	0	0	0.162295	0	-0.369056	0	0	0
3.01	0	0	0	1.3216	0	-0.226182	0	0	0	0	0	0	0.170992	0	-0.369138	0	0	0
3.015	0	0	0	1.30697	0	-0.22627	0	0	0	0	0	0	0.182261	0	-0.368509	0	0	0
3.02	0	0	0	1.29064	0	-0.227191	0	0	0	0	0	0	0.191949	0	-0.368476	0	0	0
3.025	0	0	0	1.27298	0	-0.22905	0	0	0	0	0	0	0.203775	0	-0.368035	0	0	0
3.03	0	0	0	1.25387	0	-0.231082	0	0	0	0	0	0	0.21636	0	-0.367472	0	0	0
3.035	-35.5757	34.5512	-2.33029	1.23372	0	-0.233789	0	3.1069	0	0	0	0	0.229862	0	-0.366779	0	0	0
3.04	-70.9975	155.959	-25.8169	1.12587	0	-0.22528	0	-0.767802	0	0	0	0	0.244354	0	-0.36608	0	0	0
3.045	-119.86	355.117	-60.0166	1.03697	0	-0.224062	0	-4.65365	0	0	0	0	0.259427	0	-0.365263	0	0	0
3.05	-174.253	624.18	-104.969	1.02808	0	-0.233047	0	-8.18066	0	0	0	0	0.275076	0	-0.364632	0	0	0
3.055	-217.394	942.508	-150.924	1.02303	0	-0.24081	0	-8.55986	0	0	0	0	0.291096	0	-0.363984	0	0	0
3.06	-239.956	1293.62	-178.477	1.01781	0	-0.247219	0	-1.91532	0	0	0	0	0.307628	0	-0.363095	0	0	0
3.065	-256.303	1649.11	-172.191	1.01055	0	-0.25195	0	10.4786	0	0	0	0	0.324374	0	-0.362217	0	0	0
3.07	-295.306	1965.05	-129.505	1.00396	0	-0.255027	0	19.2065	0	0	0	0	0.341222	0	-0.36183	0	0	0
3.075	-369.653	2205.97	-58.8069	1.00224	0	-0.256389	0	18.5385	0	0	0	0	0.358111	0	-0.361927	0	0	0
3.08	-465.987	2367.81	20.6106	1.00339	0	-0.256544	0	14.6283	0	0	0	0	0.37541	0	-0.3623	0	0	0
3.085	-555.632	2475.06	85.4389	1.00023	0	-0.256365	0	12.5048	0	0	0	0	0.392284	0	-0.362893	0	0	0
3.09	-604.358	2556.58	118.777	0.988032	0	-0.2563	0	10.1326	0	0	0	0	0.409075	0	-0.363458	0	0	0
3.095	-593.29	2631.51	113.049	0.965992	0	-0.256358	0	6.69719	0	0	0	0	0.426143	0	-0.364164	0	0	0
3.1	-530.499	2705.49	73.5624	0.935662	0	-0.256619	0	1.79251	0	0	0	0	0.443491	0	-0.365027	0	0	0
3.105	-435.99	2770.61	17.506	0.901869	0	-0.257032	0	-2.48349	0	0	0	0	0.461745	0	-0.364875	0	0	0
3.11	-334.326	2817.77	-34.6661	0.869816	0	-0.257367	0	-1.27879	0	0	0	0	0.480863	0	-0.367281	0	0	0
3.115	-244.455	2843.81	-68.582	0.841693	0	-0.257455	0	2.97611	0	0	0	0	0.500931	0	-0.368313	0	0	0
3.12	-164.998	2847.31	-83.1819	0.816066	0	-0.257441	0	4.91914	0	0	0	0	0.522141	0	-0.369952	0	0	0
3.125	-81.0521	2828.31	-87.8104	0.790867	0	-0.257588	0	5.66566	0	0	0	0	0.544321	0	-0.371459	0	0	0
3.13	12.5306	2786.15	-92.6849	0.765339	0	-0.258215	0	7.95867	0	0	0	0	0.567571	0	-0.373308	0	0	0
3.135	103.823	2718.09	-99.6713	0.740183	0	-0.259423	0	13.4226	0	0	0	0	0.591706	0	-0.375063	0	0	0
3.14	180.015	2624.07	-100.159	0.718106	0	-0.260766	0	21.6673	0	0	0	0	0.614568	0	-0.376122	0	0	0
3.145	236.483	2508.15	-83.132	0.701734	0	-0.261734	0	27.0136	0	0	0	0	0.64307	0	-0.377303	0	0	0
3.15	277.33	2370.57	-45.5186	0.690986	0	-0.26195	0	23.5841	0	0	0	0	0.672142	0	-0.378576	0	0	0
3.155	310.974	2204.95	4.56684	0.682517	0	-0.261407	0	11.3373	0	0	0	0	0.698541	0	-0.378691	0	0	0
3.16	341.95	2004.58	55.3948	0.67133	0	-0.260246	0	-7.53246	0	0	0	0	0.727438	0	-0.378818	0	0	0
3.165	371.552	1763.91	93.5625	0.651383	0	-0.258815	0	-28.8428	0	0	0	0	0.756761	0	-0.378553	0	0	0
3.17	398.947	1479.12	105.179	0.613044	0	-0.257898	0	-43.0765	0	0	0	0	0.786517	0	-0.37809	0	0	0
3.175	422.427	1158.8	84.7265	0.544191	0	-0.258483	0	-41.2782	0	0	0	0	0.816499	0	-0.377024	0	0	0
3.18	434.981	834.107	41.4793	0.434885	0	-0.26176	0	-20.1686	0	0	0	0	0.846939	0	-0.377384	0	0	0
3.185	422.971	547.921	-4.27761	0.28704	0	-0.268053	0	16.5116	0	0	0	0	0.876972	0	-0.376278	0	0	0
3.19	376.311	337.014	-33.7962	0.141897	0	-0.276196	0	51.8823	0	0	0	0	0.907272	0	-0.375504	0	0	0
3.195	296.271	210.357	-36.3411	0.081868	0	-0.280805	0	57.2882	0	0	0	0	0.937347	0	-0.375313	0	0	0
3.2	201.749	133.791	-17.7192	0.351152	0	-0.252671	0	31.4838	0	0	0	0	0.967326	0	-0.374838	0	0	0
3.205	120.547	74.286	3.79015	0.359804	0	-0.248302	0	2.83364	0	0	0	0	0.997422	0	-0.374889	0	0	0
3.21	64.7927	31.0882	13.5907	0.34057	0	-0.24628	0	-10.6179	0	0	0	0	1.02706	0	-0.37513	0	0	0
3.215	0	0	0	0.322142	0	-0.243426	0	0	0	0	0	0	1.05704	0	-0.375454	0	0	0
3.22	0	0	0	0.304028	0	-0.239603	0	0	0	0	0	0	1.08625	0	-0.376505	0	0	0
3.225	0	0	0	0.28622	0	-0.234599	0	0	0	0	0	0	1.11509	0	-0.378503	0	0	0
3.23	0	0	0	0.270031	0	-0.228791	0	0	0	0	0	0	1.14322	0	-0.37934	0	0	0
3.235	0	0	0	0.251872	0	-0.223944	0	0	0	0	0	0	1.17076	0	-0.380948	0	0	0
3.24	0	0	0	0.232011	0	-0.219573	0	0	0	0	0	0	1.19751	0	-0.38297	0	0	0
3.245	0	0	0	0.214139	0	-0.216589	0	0	0	0	0	0	1.22304	0	-0.385288	0	0	0
3.25	0	0	0	0.197322	0	-0.211567	0	0	0	0	0	0	1.24712	0	-0.388169	0	0	0
3.255	0	0	0	0.182612	0	-0.207877	0	0	0	0	0	0	1.26943	0	-0.391174	0	0	0
3.26	0	0	0	0.167658	0	-0.204853	0	0	0	0	0	0	1.28993	0	-0.39431	0	0	0
3.265	0	0	0	0.153803	0	-0.202057	0	0	0	0	0	0	1.30814	0	-0.396998	0	0	0
3.27	0	0	0	0.142279	0	-0.200226	0	0	0	0	0	0	1.32397	0	-0.39977	0	0	0
3.275	0	0	0	0.130962	0	-0.199077	0	0	0	0	0	0	1.33722	0	-0.402055	0	0	0
3.28	0	0	0	0.119812	0	-0.198117	0	0	0	0	0	0	1.34776	0	-0.403677	0	0	0
3.285	0	0	0	0.110017	0	-0.1974	0	0	0	0	0	0	1.35564	0	-0.404895	0	0	0
3.29	0	0	0	0.100983	0	-0.197274	0	0	0	0	0	0	1.361	0	-0.405431	0	0	0
